<?xml version="1.0" encoding="utf-8"?>
<!-- Generator: Adobe Illustrator 18.0.0, SVG Export Plug-In . SVG Version: 6.00 Build 0)  -->
<!DOCTYPE svg PUBLIC "-//W3C//DTD SVG 1.1//EN" "http://www.w3.org/Graphics/SVG/1.1/DTD/svg11.dtd">
<svg version="1.1" id="Layer_1" xmlns="http://www.w3.org/2000/svg" xmlns:xlink="http://www.w3.org/1999/xlink" x="0px" y="0px"
	 viewBox="0 0 355.9 216" enable-background="new 0 0 355.9 216" xml:space="preserve">
<line fill="none" stroke="#FF00FF" stroke-width="0.25" x1="221.1" y1="167" x2="221.1" y2="55"/>
<line fill="none" stroke="#FF00FF" stroke-width="0.25" x1="135.1" y1="167" x2="135.1" y2="55"/>
<polygon fill="#6DABE4" points="152.2,132.4 156.3,132.4 162.3,142.8 162.3,142.8 162.3,132.4 166,132.4 166,148.6 161.9,148.6 
	156,138.4 155.9,138.4 155.9,148.6 152.2,148.6 "/>
<g>
	<defs>
		<rect id="SVGID_1_" width="355.9" height="216"/>
	</defs>
	<clipPath id="SVGID_2_">
		<use xlink:href="#SVGID_1_"  overflow="visible"/>
	</clipPath>
	<path clip-path="url(#SVGID_2_)" fill="#6DABE4" d="M169.6,143.8c1.4,1.3,2.8,2,4.7,2c1.1,0,3-0.5,3-1.9c0-0.8-0.6-1.2-1.8-1.4
		l-3.4-0.5c-3-0.5-4.7-2.1-4.7-4.5c0-3.9,3.2-5.5,6.6-5.5c2.7,0,5.3,1.1,7.2,3.1l-3.1,2.2c-1.1-1.3-2.6-2.1-4.4-2.1
		c-0.9,0-2.3,0.6-2.3,1.6c0,0.9,0.7,1.3,2.3,1.6l1.6,0.2c3.2,0.5,5.9,1.5,5.9,4.6c0,4.9-4.4,5.8-7.4,5.8c-2.8,0-5.1-0.9-7.3-3.3
		L169.6,143.8z"/>
</g>
<polygon fill="#6DABE4" points="181.1,132.4 185.1,132.4 187.6,144 187.6,144 190.5,132.4 194.2,132.4 197.2,144 197.2,144 
	199.6,132.4 203.6,132.4 199.4,148.6 195.2,148.6 192.3,137.5 192.2,137.5 189.4,148.6 185.3,148.6 "/>
<g>
	<defs>
		<rect id="SVGID_3_" width="355.9" height="216"/>
	</defs>
	<clipPath id="SVGID_4_">
		<use xlink:href="#SVGID_3_"  overflow="visible"/>
	</clipPath>
	<path clip-path="url(#SVGID_4_)" fill="#004D71" d="M176.4,129.3h4v-5.9h7v-3.1h-7v-2.8h7.6v-3.1h-11.5V129.3z M188.5,129.3h4v-15
		h-4V129.3z M213.8,123.9h3.2c-0.2,1.7-2,2.4-3.1,2.4c-2.3,0-3.6-1.6-3.6-4.5c0-2.9,1.3-4.5,3.6-4.5c1.5,0,2.6,0.6,3.3,1.8l0.1,0.1
		l3.3-1.5l-0.1-0.1c-1.5-2.4-3.9-3.7-6.9-3.7c-4.5,0-7.3,3.1-7.3,8c0,2.3,0.6,4.3,1.7,5.6c1.2,1.5,3,2.2,5.1,2.2
		c1.7,0,3.1-0.5,4.1-1.5v1.1h3.1v-8.5h-6.6V123.9z M202.2,123.3l-5.2-9.1h-3.9v15h3.6v-8.9l5.2,8.9h3.9v-15h-3.6V123.3z
		 M158.1,123.7c0,1.8-0.8,2.7-2.4,2.7c-1.6,0-2.4-0.9-2.4-2.7v-9.4h-4v9.7c0,3.9,3.2,5.7,6.4,5.7c3.2,0,6.4-1.8,6.4-5.7v-9.7h-4
		V123.7z M169.8,121h-3.2v-3.7h3.2c0.8,0,1.8,0.3,1.8,1.8C171.6,120.6,170.7,121,169.8,121 M175.6,119.2c0-3.3-1.9-5-5.5-5h-7.5v15
		h4V124h2.1l2.9,5.3h4.4l-3.4-6C174.4,122.7,175.6,121.1,175.6,119.2 M142,117.1c1.5,0,2.9,0.7,3.8,1.8l0.1,0.1l3-2.2l-0.1-0.1
		c-1.6-1.8-4-2.9-6.6-2.9c-3,0-6.2,1.4-6.2,5.2c0,2.3,1.5,3.7,4.3,4.2l3.1,0.5c1.1,0.2,1.5,0.5,1.5,1.2c0,1.1-1.6,1.6-2.6,1.6
		c-1.5,0-2.7-0.5-4.2-1.8l-0.1-0.1l-3,2l0.1,0.1c1.9,2.1,4,3,6.7,3c2.6,0,6.9-0.7,6.9-5.4c0-3-2.8-3.9-5.5-4.3l-1.4-0.2
		c-1.4-0.2-1.9-0.6-1.9-1.3C140.1,117.6,141.2,117.1,142,117.1"/>
	<path clip-path="url(#SVGID_4_)" fill="#004D71" d="M178.8,83l0.3-0.2l-0.2-0.4l-0.4-0.6l1.2,0.4l0.5-1.1l0.3,1.1l1.2-0.4l-0.4,0.5
		l-0.3,0.5l0.1,0.1l0.9,0.6l-0.7,0.1l-0.5,0.1l0,0.4l0,0.7l-0.2-0.2l-0.6-0.6l-0.9,0.8l0.2-1.2l-0.7-0.1l-0.5-0.1L178.8,83z
		 M183.8,77.7l-0.4-0.6l1.2,0.4l0.5-1.1l0.3,1.1l1.2-0.4l-0.4,0.5l-0.4,0.5l0.1,0.1l0.9,0.6l-0.7,0.1l-0.5,0.1l0,0.4l0,0.7l-0.2-0.2
		l-0.6-0.6L184,80l0.2-1.2l-0.7-0.1l-0.5-0.1l0.8-0.5l0.3-0.2L183.8,77.7z M188.1,86.2l0.3,0.9l1,0l-0.6,0.5l-0.2,0.2l0.1,0.3
		l0.2,0.7l-0.3-0.2l-0.5-0.3l-0.9,0.5l0.2-0.5l0.2-0.4l-0.2-0.1l-0.6-0.4l1,0L188.1,86.2z M189.5,83.7l0.3-0.2l-0.2-0.4l-0.4-0.6
		l1.2,0.4l0.5-1.1l0.3,1.1l1-0.3l0.2-0.1l-0.1,0.1l-0.3,0.4l-0.3,0.5l0.1,0.1l0.9,0.6l-0.7,0.1l-0.5,0.1l0,0.4l0,0.7l-0.2-0.2
		l-0.6-0.6l-0.9,0.8l0.2-1.2l-0.7-0.1l-0.5-0.1L189.5,83.7z M185.8,93.6l-0.5,0.1l0,0.4l0,0.7l-0.2-0.2l-0.6-0.6l-0.9,0.8l0.2-1.2
		l-0.7-0.1l-0.5,0l0.8-0.5l0.3-0.2l-0.2-0.4l-0.4-0.6l1.2,0.4l0.5-1.1l0.3,1.1l1.2-0.4l-0.4,0.5l-0.3,0.5l0.1,0.1l0.9,0.6
		L185.8,93.6z M160.6,83.3c0.1,0,0.2,0,0.3,0c2.1,0.2,4.4-1.1,6.6-2.2c2.6-1.2,4.2-1.5,5.8-1.3c0.5,0.1,1,0.1,1.5,0.3
		c2,0.5,2.6,3.3,2.6,3.4c0,0-0.1-0.2-0.4-0.5c-0.4-0.3-1.2-0.8-2.6-1.1c-0.1,0-0.2,0-0.3-0.1c-1.6-0.1-3.4,1.1-3.7,2.5
		c-0.1,0.5,0,1,0.4,1.4c0.6,0.6,1.2,0.8,1.8,0.9c1.2,0.1,2.4-0.4,3.7-0.6c0.9-0.2,1.8-0.2,2.6-0.1c0.8,0.1,1.6,0.3,2.2,0.7
		c1.2,0.7,1.7,1.8,1.8,2.4c0.2,0.6,0,0.8,0,0.9c0,0,0,0-0.1-0.1c-0.3-0.3-1.2-1-2.5-1.3c-0.1,0-0.1,0-0.2,0
		c-1.5-0.1-2.6,1.1-3.1,2.7c-0.6,2.2,4.8,6,11.6,7.5c1,0.2,1.7,0.4,2.3,0.5c0.8,0.1,1.5,0,2.4-0.6c1.2-0.7,1.8-1.7,2.2-2.8
		c0.1-0.2,0.2-0.4,0.2-0.6c1.7-5.1-3.8-19.2-14-21.7c-0.7-0.2-1.4-0.3-2.2-0.4c-7.6-0.7-16.2,3.9-20.3,8.3c-0.2,0.2-0.3,0.4-0.3,0.6
		C159,82.7,159.9,83.2,160.6,83.3 M160.7,94.9c2.9,2,7,3.8,12.1,5c2.5,0.6,4.8,1,7,1.2c1.4,0.1,2.7,0.2,4,0.2c1-0.1,2.2-0.2,3.4-0.3
		c0.4-0.1,0.7-0.1,1.1-0.2c0.5-0.1,1.1-0.3,1.5-0.4c-0.8,0-1.7,0-2.7-0.1c-4.5-0.4-10.3-2.1-15.5-8.4c-2.9-3.5-6.5-5.5-9.4-5.8
		c-2.2-0.2-4,0.6-4.7,2.6c0,0,0,0.1,0,0.1C156.9,90.7,158,92.9,160.7,94.9"/>
	<path clip-path="url(#SVGID_4_)" fill="#6DABE4" d="M201.1,96.5c0-0.1,0-0.3,0-0.4c0-0.2,0-0.3-0.1-0.5c0-0.1,0-0.3,0-0.4
		c0-0.2-0.1-0.4-0.1-0.6c0-0.1,0-0.2-0.1-0.4c0-0.2-0.1-0.5-0.1-0.7c0-0.1,0-0.2-0.1-0.3c-0.1-0.3-0.2-0.7-0.3-1c0,0,0,0,0,0
		c-0.1-0.4-0.2-0.8-0.4-1.2c0-0.1-0.1-0.2-0.1-0.4c-0.1-0.3-0.2-0.6-0.3-0.9c-0.1-0.1-0.1-0.3-0.2-0.4c-0.1-0.3-0.3-0.6-0.4-0.9
		c0-0.1-0.1-0.2-0.1-0.3c-0.2-0.4-0.4-0.8-0.6-1.2c0,0,0,0,0,0c0,0,0-0.1-0.1-0.1c-0.3-0.6-0.7-1.3-1.1-1.9
		c-0.9-1.4-1.7-2.7-2.6-4.1c0.4,0.6,0.8,1.3,1.1,1.9c0,0,0,0.1,0.1,0.1c0.2,0.4,0.4,0.8,0.6,1.2c0,0.1,0.1,0.2,0.1,0.3
		c0.1,0.3,0.3,0.7,0.4,1c0,0.1,0.1,0.2,0.1,0.4c0.1,0.3,0.2,0.6,0.4,1c0,0.1,0.1,0.2,0.1,0.3c0.1,0.4,0.3,0.8,0.4,1.2
		c0.2,0.6,0.3,1.2,0.4,1.8c0,0.1,0,0.1,0,0.2c0,0.2,0.1,0.4,0.1,0.6c0,0.1,0,0.2,0.1,0.4c0,0.2,0,0.3,0.1,0.5c0,0.1,0,0.3,0,0.4
		c0,0.2,0,0.3,0,0.5c0,0.1,0,0.3,0,0.4c0,0.1,0,0.3,0,0.4c0,0.1,0,0.3,0,0.4c0,0.1,0,0.2,0,0.4c0,0.1,0,0.3,0,0.4c0,0.1,0,0.2,0,0.3
		c0,0.1,0,0.3-0.1,0.4c-0.1,0.3-0.1,0.6-0.2,0.8c-0.1,0.3-0.2,0.6-0.4,0.9c-0.1,0.2-0.2,0.5-0.3,0.7c-0.1,0.2-0.2,0.3-0.3,0.5
		c-0.1,0.2-0.2,0.3-0.3,0.5c-0.1,0.2-0.2,0.3-0.4,0.5c-0.1,0.1-0.2,0.3-0.3,0.4c-0.1,0.2-0.3,0.3-0.4,0.5c-0.1,0.1-0.3,0.3-0.4,0.4
		c-0.1,0.1-0.3,0.2-0.4,0.4c-0.2,0.2-0.4,0.3-0.6,0.4c-0.2,0.1-0.3,0.2-0.5,0.4c-0.1,0.1-0.2,0.1-0.3,0.2c-0.3,0.2-0.6,0.3-0.9,0.4
		c-0.1,0-0.1,0.1-0.2,0.1c-0.1,0.1-0.2,0.1-0.4,0.1c-0.3,0.1-0.6,0.3-1,0.4c-0.2,0.1-0.3,0.1-0.5,0.2c-0.3,0.1-0.6,0.2-0.9,0.3
		c-0.2,0.1-0.4,0.1-0.6,0.1c-0.3,0.1-0.6,0.1-0.9,0.2c-0.2,0-0.4,0.1-0.6,0.1c-0.3,0-0.6,0.1-0.9,0.1c-0.2,0-0.4,0.1-0.6,0.1
		c-0.3,0-0.6,0.1-1,0.1c-0.2,0-0.4,0-0.7,0c-0.3,0-0.7,0-1.1,0c-0.2,0-0.4,0-0.6,0c-0.4,0-0.8,0-1.2,0c-0.2,0-0.4,0-0.5,0
		c-0.6,0-1.2-0.1-1.8-0.1c-2.4-0.2-4.8-0.7-7.3-1.3c-7.6-1.9-14.3-5.2-17.2-9.7c0.9,1.4,1.7,2.7,2.6,4.1c2.8,4.5,9.5,7.8,17.2,9.7
		c2.4,0.6,4.9,1,7.3,1.3c0.6,0.1,1.2,0.1,1.8,0.1c0.2,0,0.4,0,0.6,0c0.4,0,0.8,0,1.1,0c0.2,0,0.4,0,0.7,0c0.3,0,0.7,0,1,0
		c0.2,0,0.5,0,0.7,0c0.3,0,0.6,0,0.9-0.1c0.2,0,0.4,0,0.7-0.1c0.3,0,0.6-0.1,0.9-0.1c0.2,0,0.4-0.1,0.6-0.1c0.3-0.1,0.6-0.1,0.9-0.2
		c0.2,0,0.4-0.1,0.6-0.1c0.3-0.1,0.6-0.2,0.9-0.3c0.2-0.1,0.4-0.1,0.5-0.2c0.3-0.1,0.6-0.2,0.9-0.4c0.1-0.1,0.3-0.1,0.4-0.2
		c0,0,0,0,0.1,0c0,0,0.1,0,0.1-0.1c0.3-0.1,0.6-0.3,0.9-0.5c0.1-0.1,0.2-0.1,0.3-0.2c0.1-0.1,0.2-0.1,0.3-0.2
		c0.1-0.1,0.2-0.1,0.2-0.2c0.2-0.1,0.4-0.3,0.6-0.5c0.1-0.1,0.2-0.1,0.2-0.2c0.1-0.1,0.1-0.1,0.2-0.2c0.1-0.1,0.3-0.3,0.4-0.4
		c0.1-0.1,0.1-0.1,0.2-0.2c0.1-0.1,0.1-0.2,0.2-0.3c0.1-0.1,0.2-0.3,0.3-0.4c0.1-0.1,0.1-0.1,0.2-0.2c0.1-0.1,0.1-0.2,0.2-0.3
		c0.1-0.1,0.2-0.3,0.3-0.5c0-0.1,0.1-0.1,0.1-0.2c0.1-0.1,0.1-0.2,0.2-0.3c0.1-0.2,0.2-0.5,0.4-0.7c0-0.1,0.1-0.1,0.1-0.2
		c0.1-0.2,0.2-0.4,0.3-0.7c0.1-0.3,0.2-0.5,0.2-0.8c0,0,0-0.1,0-0.1c0-0.1,0-0.2,0-0.3c0-0.1,0-0.2,0.1-0.3c0-0.1,0-0.3,0-0.4
		c0-0.1,0-0.2,0-0.4c0-0.2,0-0.3,0-0.5c0-0.1,0-0.3,0-0.4C201.1,96.9,201.1,96.7,201.1,96.5"/>
</g>
<line fill="none" stroke="#FF00FF" stroke-width="0.25" x1="116.9" y1="72.9" x2="238.9" y2="72.9"/>
<line fill="none" stroke="#FF00FF" stroke-width="0.25" x1="116.9" y1="149.4" x2="238.9" y2="149.4"/>
<polygon fill="none" stroke="#231F20" stroke-width="0.25" points="117.1,55.2 117.1,167 117.1,167.1 117.2,167.1 238.7,167.1 
	238.8,167.1 238.8,167 238.8,55.2 238.8,55.1 238.7,55.1 117.2,55.1 117.1,55.1 "/>
<line fill="none" stroke="#FF00FF" stroke-width="0.25" stroke-dasharray="2,2" x1="238.9" y1="55.1" x2="268.9" y2="55.1"/>
<line fill="none" stroke="#FF00FF" stroke-width="0.25" stroke-dasharray="2,2" x1="238.9" y1="72.9" x2="268.9" y2="72.9"/>
<line fill="none" stroke="#FF00FF" stroke-width="0.25" stroke-dasharray="2,2" x1="86.9" y1="55.1" x2="116.9" y2="55.1"/>
<line fill="none" stroke="#FF00FF" stroke-width="0.25" stroke-dasharray="2,2" x1="86.9" y1="72.9" x2="116.9" y2="72.9"/>
<line fill="none" stroke="#FF00FF" stroke-width="0.25" stroke-dasharray="2,2" x1="238.9" y1="149.4" x2="268.9" y2="149.4"/>
<line fill="none" stroke="#FF00FF" stroke-width="0.25" stroke-dasharray="2,2" x1="238.9" y1="167.1" x2="268.9" y2="167.1"/>
<line fill="none" stroke="#FF00FF" stroke-width="0.25" stroke-dasharray="2,2" x1="86.9" y1="149.4" x2="116.9" y2="149.4"/>
<line fill="none" stroke="#FF00FF" stroke-width="0.25" stroke-dasharray="2,2" x1="86.9" y1="167.1" x2="116.9" y2="167.1"/>
<line fill="none" stroke="#FF00FF" stroke-width="0.25" stroke-dasharray="2,2" x1="238.8" y1="167" x2="238.8" y2="197"/>
<line fill="none" stroke="#FF00FF" stroke-width="0.25" stroke-dasharray="2,2" x1="221.1" y1="167" x2="221.1" y2="197"/>
<line fill="none" stroke="#FF00FF" stroke-width="0.25" stroke-dasharray="2,2" x1="238.8" y1="25" x2="238.8" y2="55"/>
<line fill="none" stroke="#FF00FF" stroke-width="0.25" stroke-dasharray="2,2" x1="221.1" y1="25" x2="221.1" y2="55"/>
<line fill="none" stroke="#FF00FF" stroke-width="0.25" stroke-dasharray="2,2" x1="134.8" y1="167" x2="134.8" y2="197"/>
<line fill="none" stroke="#FF00FF" stroke-width="0.25" stroke-dasharray="2,2" x1="117.1" y1="167" x2="117.1" y2="197"/>
<line fill="none" stroke="#FF00FF" stroke-width="0.25" stroke-dasharray="2,2" x1="134.8" y1="25" x2="134.8" y2="55"/>
<line fill="none" stroke="#FF00FF" stroke-width="0.25" stroke-dasharray="2,2" x1="117.1" y1="25" x2="117.1" y2="55"/>
<text transform="matrix(1 0 0 1 274.8525 67.6396)" fill="#FF00FF" font-family="'ArialMT'" font-size="10">18PX</text>
<text transform="matrix(1 0 0 1 56.5322 67.6396)" fill="#FF00FF" font-family="'ArialMT'" font-size="10">18PX</text>
<text transform="matrix(1 0 0 1 56.5322 161.3203)" fill="#FF00FF" font-family="'ArialMT'" font-size="10">18PX</text>
<text transform="matrix(1 0 0 1 274.8525 161.3203)" fill="#FF00FF" font-family="'ArialMT'" font-size="10">18PX</text>
<text transform="matrix(1 0 0 1 217.6924 209.6396)" fill="#FF00FF" font-family="'ArialMT'" font-size="10">18PX</text>
<text transform="matrix(1 0 0 1 217.6924 19.6396)" fill="#FF00FF" font-family="'ArialMT'" font-size="10">18PX</text>
<text transform="matrix(1 0 0 1 112.9521 209.1396)" fill="#FF00FF" font-family="'ArialMT'" font-size="10">18PX</text>
<text transform="matrix(1 0 0 1 112.9521 19.1396)" fill="#FF00FF" font-family="'ArialMT'" font-size="10">18PX</text>
</svg>
