<?xml version="1.0" encoding="utf-8"?>
<!-- Generator: Adobe Illustrator 18.0.0, SVG Export Plug-In . SVG Version: 6.00 Build 0)  -->
<!DOCTYPE svg PUBLIC "-//W3C//DTD SVG 1.1//EN" "http://www.w3.org/Graphics/SVG/1.1/DTD/svg11.dtd">
<svg version="1.1" id="Capa_1" xmlns="http://www.w3.org/2000/svg" xmlns:xlink="http://www.w3.org/1999/xlink" x="0px" y="0px"
	 viewBox="94.7 64 26.6 18" enable-background="new 94.7 64 26.6 18" xml:space="preserve">
<path d="M107.6,73l5.6-5.6c0.3-0.3,0.4-0.6,0.4-1c0-0.4-0.1-0.8-0.4-1l-0.9-0.9c-0.3-0.3-0.6-0.4-1-0.4c-0.4,0-0.8,0.1-1,0.4
	l-7.5,7.5c-0.3,0.3-0.4,0.6-0.4,1s0.1,0.8,0.4,1l7.5,7.5c0.3,0.3,0.6,0.4,1,0.4c0.4,0,0.8-0.1,1-0.4l0.9-0.9c0.3-0.3,0.4-0.6,0.4-1
	c0-0.4-0.1-0.8-0.4-1.1L107.6,73z"/>
</svg>
