<?xml version="1.0" encoding="utf-8"?>
<!-- Generator: Adobe Illustrator 18.0.0, SVG Export Plug-In . SVG Version: 6.00 Build 0)  -->
<!DOCTYPE svg PUBLIC "-//W3C//DTD SVG 1.1//EN" "http://www.w3.org/Graphics/SVG/1.1/DTD/svg11.dtd">
<svg version="1.1" id="Capa_1" xmlns="http://www.w3.org/2000/svg" xmlns:xlink="http://www.w3.org/1999/xlink" x="0px" y="0px"
	 viewBox="94.7 64 26.6 18" enable-background="new 94.7 64 26.6 18" xml:space="preserve">
<path d="M116.1,72l-7.5-7.5c-0.3-0.3-0.6-0.4-1.1-0.4c-0.4,0-0.7,0.1-1,0.4l-0.9,0.9c-0.3,0.3-0.4,0.6-0.4,1s0.1,0.8,0.4,1l3.4,3.4
	h-8.1c-0.4,0-0.7,0.1-1,0.4c-0.3,0.3-0.4,0.6-0.4,1v1.5c0,0.4,0.1,0.8,0.4,1c0.3,0.3,0.6,0.4,1,0.4h8.1l-3.4,3.4
	c-0.3,0.3-0.4,0.6-0.4,1.1s0.1,0.8,0.4,1.1l0.9,0.9c0.3,0.3,0.6,0.4,1,0.4c0.4,0,0.8-0.1,1.1-0.4l7.5-7.5c0.3-0.3,0.4-0.6,0.4-1.1
	C116.5,72.6,116.4,72.2,116.1,72z"/>
</svg>
