<?xml version="1.0" encoding="utf-8"?>
<!-- Generator: Adobe Illustrator 18.0.0, SVG Export Plug-In . SVG Version: 6.00 Build 0)  -->
<!DOCTYPE svg PUBLIC "-//W3C//DTD SVG 1.1//EN" "http://www.w3.org/Graphics/SVG/1.1/DTD/svg11.dtd">
<svg version="1.1" id="Capa_1" xmlns="http://www.w3.org/2000/svg" xmlns:xlink="http://www.w3.org/1999/xlink" x="0px" y="0px"
	 viewBox="94.7 64 26.6 18" enable-background="new 94.7 64 26.6 18" xml:space="preserve">
<path d="M116.9,72.7l-4-3.6c-0.1-0.1-0.2-0.1-0.4-0.1c-0.1,0.1-0.2,0.2-0.2,0.3v2.3h-13c-0.1,0-0.2,0-0.2,0.1C99,71.8,99,71.9,99,72
	v2c0,0.1,0,0.2,0.1,0.2c0.1,0.1,0.1,0.1,0.2,0.1h13v2.3c0,0.1,0.1,0.2,0.2,0.3c0.1,0.1,0.3,0,0.4-0.1l4-3.7c0.1-0.1,0.1-0.2,0.1-0.2
	C117,72.9,117,72.8,116.9,72.7z"/>
</svg>
