<?xml version="1.0" encoding="utf-8"?>
<!-- Generator: Adobe Illustrator 18.0.0, SVG Export Plug-In . SVG Version: 6.00 Build 0)  -->
<!DOCTYPE svg PUBLIC "-//W3C//DTD SVG 1.1//EN" "http://www.w3.org/Graphics/SVG/1.1/DTD/svg11.dtd">
<svg version="1.1" id="Capa_1" xmlns="http://www.w3.org/2000/svg" xmlns:xlink="http://www.w3.org/1999/xlink" x="0px" y="0px"
	 viewBox="94.7 64 26.6 18" enable-background="new 94.7 64 26.6 18" xml:space="preserve">
<g>
	<path d="M115.8,68.5c-0.8-1.4-1.9-2.5-3.3-3.3c-1.4-0.8-2.9-1.2-4.5-1.2c-1.6,0-3.1,0.4-4.5,1.2c-1.4,0.8-2.5,1.9-3.3,3.3
		C99.4,69.9,99,71.4,99,73c0,1.6,0.4,3.1,1.2,4.5c0.8,1.4,1.9,2.5,3.3,3.3c1.4,0.8,2.9,1.2,4.5,1.2s3.1-0.4,4.5-1.2
		c1.4-0.8,2.5-1.9,3.3-3.3c0.8-1.4,1.2-2.9,1.2-4.5C117,71.4,116.6,69.9,115.8,68.5z M113.5,76.2c-0.6,1-1.3,1.8-2.3,2.3
		c-1,0.6-2,0.9-3.2,0.9c-1.2,0-2.2-0.3-3.2-0.9c-1-0.6-1.7-1.3-2.3-2.3c-0.6-1-0.9-2-0.9-3.2s0.3-2.2,0.9-3.2c0.6-1,1.3-1.8,2.3-2.3
		c1-0.6,2-0.9,3.2-0.9s2.2,0.3,3.2,0.9c1,0.6,1.8,1.3,2.3,2.3c0.6,1,0.9,2,0.9,3.2S114.1,75.2,113.5,76.2z"/>
	<path d="M108.7,69c-0.1-0.1-0.2-0.1-0.3-0.1c-0.1,0-0.2,0-0.3,0.1c-0.1,0.1-0.1,0.2-0.1,0.3v2.3h-4.1c-0.1,0-0.2,0-0.3,0.1
		c-0.1,0.1-0.1,0.2-0.1,0.3v2.3c0,0.1,0,0.2,0.1,0.3c0.1,0.1,0.2,0.1,0.3,0.1h4.1v2.3c0,0.1,0,0.2,0.1,0.3c0.1,0.1,0.2,0.1,0.3,0.1
		c0.1,0,0.2,0,0.3-0.1l3.8-3.7c0.1-0.1,0.1-0.2,0.1-0.3c0-0.1,0-0.2-0.1-0.3L108.7,69z"/>
</g>
</svg>
