<?xml version="1.0" encoding="utf-8"?>
<!-- Generator: Adobe Illustrator 18.0.0, SVG Export Plug-In . SVG Version: 6.00 Build 0)  -->
<!DOCTYPE svg PUBLIC "-//W3C//DTD SVG 1.1//EN" "http://www.w3.org/Graphics/SVG/1.1/DTD/svg11.dtd">
<svg version="1.1" id="Capa_1" xmlns="http://www.w3.org/2000/svg" xmlns:xlink="http://www.w3.org/1999/xlink" x="0px" y="0px"
	 viewBox="94.7 64 26.6 18" enable-background="new 94.7 64 26.6 18" xml:space="preserve">
<path d="M112.1,73l4.5-4.5c0.3-0.3,0.4-0.6,0.4-1c0-0.4-0.1-0.7-0.4-1l-2.1-2.1c-0.3-0.3-0.6-0.4-1-0.4c-0.4,0-0.7,0.1-1,0.4
	l-4.5,4.5l-4.5-4.5c-0.3-0.3-0.6-0.4-1-0.4c-0.4,0-0.7,0.1-1,0.4l-2.1,2.1c-0.3,0.3-0.4,0.6-0.4,1c0,0.4,0.1,0.7,0.4,1l4.5,4.5
	l-4.5,4.5c-0.3,0.3-0.4,0.6-0.4,1c0,0.4,0.1,0.7,0.4,1l2.1,2.1c0.3,0.3,0.6,0.4,1,0.4c0.4,0,0.7-0.1,1-0.4l4.5-4.5l4.5,4.5
	c0.3,0.3,0.6,0.4,1,0.4c0.4,0,0.7-0.1,1-0.4l2.1-2.1c0.3-0.3,0.4-0.6,0.4-1c0-0.4-0.1-0.7-0.4-1L112.1,73z"/>
</svg>
